#!OML:ASF E:\motion texture\Top Level 1\Subject 1\Session 1\male.ASF
:FULLY-SPECIFIED
:DEGREES
397
root -25.1813 17.9037 4.71837 111.839 -82.2096 -106.583
lowerback 0.982116 1.05939 4.99296
upperback -3.88885 1.5918 2.91645
thorax -4.52298 0.621845 0.150187
lowerneck -16.3066 -6.73374 -6.82037
upperneck 17.5012 -8.46863 3.96371
head 8.60784 -4.08446 1.38705
rclavicle -4.78326e-015 -3.97569e-016
rhumerus -24.2145 -78.7395 9.1958
rradius 21.4432
rwrist 4.87903
rhand -6.24584 -24.7288
rfingers 7.12502
rthumb 19.596 -53.7612
lclavicle -4.78326e-015 -3.97569e-016
lhumerus -31.3396 53.1036 -2.74368
lradius 26.1849
lwrist 19.0331
lhand -13.2453 19.2715
lfingers 7.12502
lthumb 12.8567 48.8555
rfemur -2.932 0.652837 27.3327
rtibia 43.798
rfoot 1.5642 -5.82138
rtoes -7.47112
lfemur -24.1058 -0.54421 -10.2455
ltibia 23.1174
lfoot -2.56584 4.90242
ltoes -1.57469
398
root -25.3427 17.9186 4.74675 113.306 -82.5526 -108.178
lowerback 1.03385 1.04208 4.64407
upperback -3.88479 1.56191 2.81158
thorax -4.55327 0.619549 0.235861
lowerneck -16.3465 -6.71086 -6.76344
upperneck 17.7465 -8.45021 3.89413
head 8.6914 -4.07977 1.35322
rclavicle -1.36664e-016 -4.22417e-014
rhumerus -24.5592 -79.1055 9.64389
rradius 21.2901
rwrist 5.14634
rhand -6.19929 -24.7762
rfingers 7.12502
rthumb 19.6408 -53.804
lclavicle -1.36664e-016 -4.22417e-014
lhumerus -31.5398 53.2277 -3.04975
lradius 26.0949
lwrist 19.0697
lhand -13.274 19.3418
lfingers 7.12502
lthumb 12.8291 48.9275
rfemur -4.07117 0.171265 26.5813
rtibia 45.987
rfoot 4.66149 -6.16543
rtoes -5.0198
lfemur -23.2533 -0.355208 -10.9146
ltibia 22.98
lfoot -2.9023 4.70083
ltoes -1.00404
399
root -25.5016 17.933 4.77404 114.933 -82.9714 -109.93
lowerback 1.09663 1.00794 4.21584
upperback -3.88632 1.50722 2.68769
thorax -4.59733 0.607577 0.347244
lowerneck -16.3642 -6.67504 -6.70629
upperneck 17.971 -8.41853 3.84268
head 8.76423 -4.06747 1.32809
rclavicle -7.92654e-015 -1.49089e-015
rhumerus -24.6744 -79.4354 9.84376
rradius 21.1623
rwrist 5.37028
rhand -6.10609 -24.8086
rfingers 7.12502
rthumb 19.7304 -53.8273
lclavicle -7.92654e-015 -1.49089e-015
lhumerus -31.7528 53.371 -3.37487
lradius 26.0117
lwrist 19.1357
lhand -13.3194 19.4021
lfingers 7.12502
lthumb 12.7853 48.9906
rfemur -5.22285 -0.33702 25.7683
rtibia 48.1183
rfoot 7.52308 -6.6793
rtoes -2.38705
lfemur -22.3937 -0.203772 -11.6662
ltibia 22.7905
lfoot -3.27707 4.52102
ltoes -0.643911
400
root -25.6577 17.9468 4.79973 116.783 -83.442 -111.892
lowerback 1.16163 0.962186 3.72634
upperback -3.89023 1.43408 2.55277
thorax -4.6461 0.588676 0.482626
lowerneck -16.3909 -6.63282 -6.63943
upperneck 18.1921 -8.37878 3.7878
head 8.83667 -4.05093 1.30111
rclavicle -5.87657e-015 -5.36719e-015
rhumerus -24.577 -79.7293 9.81695
rradius 21.0639
rwrist 5.57129
rhand -5.9928 -24.838
rfingers 7.12502
rthumb 19.8393 -53.8454
lclavicle -5.87657e-015 -5.36719e-015
lhumerus -31.967 53.5039 -3.68918
lradius 25.9509
lwrist 19.2469
lhand -13.4159 19.455
lfingers 7.12502
lthumb 12.6923 49.0493
rfemur -6.39745 -0.86591 24.9253
rtibia 50.1971
rfoot 9.90921 -7.42486
rtoes 0.093946
lfemur -21.5499 -0.0893157 -12.469
ltibia 22.5757
lfoot -3.69195 4.34594
ltoes -0.460804
401
root -25.8111 17.9603 4.8238 118.725 -83.9211 -113.935
lowerback 1.23658 0.906868 3.22555
upperback -3.8941 1.34706 2.41904
thorax -4.7004 0.563336 0.626622
lowerneck -16.4199 -6.58441 -6.57896
upperneck 18.3926 -8.33207 3.7546
head 8.90358 -4.02918 1.28355
rclavicle 1.83876e-015 4.11484e-014
rhumerus -24.1927 -79.9157 9.48776
rradius 20.9981
rwrist 5.68915
rhand -5.88239 -24.8565
rfingers 7.12502
rthumb 19.9454 -53.8529
lclavicle 1.83876e-015 4.11484e-014
lhumerus -32.166 53.6045 -3.9674
lradius 25.9204
lwrist 19.4187
lhand -13.5017 19.5005
lfingers 7.12502
lthumb 12.6095 49.0999
rfemur -7.59191 -1.4256 24.1082
rtibia 52.2216
rfoot 11.679 -8.46042
rtoes 2.14325
lfemur -20.7256 -0.0145211 -13.2644
ltibia 22.3479
lfoot -4.12218 4.17942
ltoes -0.359165
402
root -25.9627 17.9734 4.84667 120.569 -84.3874 -115.877
lowerback 1.31486 0.840585 2.74575
upperback -3.89842 1.24497 2.29539
thorax -4.7563 0.529832 0.770666
lowerneck -16.4475 -6.53327 -6.49301
upperneck 18.5822 -8.2811 3.69259
head 8.96395 -4.00668 1.25298
rclavicle 5.82688e-015 -8.15017e-015
rhumerus -23.6553 -80.0769 8.99911
rradius 20.9597
rwrist 5.83021
rhand -5.77678 -24.8471
rfingers 7.12502
rthumb 20.0469 -53.8329
lclavicle 5.82688e-015 -8.15017e-015
lhumerus -32.3608 53.6672 -4.2138
lradius 25.9222
lwrist 19.6112
lhand -13.5144 19.531
lfingers 7.12502
lthumb 12.5973 49.1312
rfemur -8.78961 -2.03914 23.3446
rtibia 54.1694
rfoot 12.7593 -9.76831
rtoes 3.66976
lfemur -19.9048 0.012512 -14.0238
ltibia 22.0978
lfoot -4.55186 4.02367
ltoes -0.30309
403
root -26.1125 17.9866 4.86833 122.234 -84.8043 -117.631
lowerback 1.38794 0.771654 2.31938
upperback -3.89176 1.13991 2.19522
thorax -4.7965 0.493353 0.909913
lowerneck -16.4935 -6.48112 -6.4082
upperneck 18.755 -8.22635 3.63368
head 9.02205 -3.98163 1.2238
rclavicle -3.41661e-016 1.76918e-014
rhumerus -22.8334 -80.0937 8.21865
rradius 20.9602
rwrist 5.8553
rhand -5.68352 -24.8264
rfingers 7.12502
rthumb 20.1366 -53.8028
lclavicle -3.41661e-016 1.76918e-014
lhumerus -32.5521 53.7331 -4.42098
lradius 25.951
lwrist 19.7857
lhand -13.4492 19.5545
lfingers 7.12502
lthumb 12.6601 49.1508
rfemur -9.99717 -2.68928 22.6774
rtibia 56.027
rfoot 13.1349 -11.301
rtoes 4.69618
lfemur -19.0877 0.0106681 -14.7012
ltibia 21.8228
lfoot -4.9667 3.88534
ltoes -0.280207
404
root -26.2604 18.0003 4.88888 123.319 -85.156 -118.8
lowerback 1.45798 0.699151 1.97578
upperback -3.88095 1.03253 2.12704
thorax -4.82909 0.452943 1.0366
lowerneck -16.5434 -6.42976 -6.29788
upperneck 18.9086 -8.16999 3.54133
head 9.07166 -3.95735 1.17956
rclavicle 3.49116e-015 1.78906e-015
rhumerus -21.8828 -79.985 7.31182
rradius 20.9983
rwrist 5.7979
rhand -5.57216 -24.7899
rfingers 7.12502
rthumb 20.2436 -53.755
lclavicle 3.49116e-015 1.78906e-015
lhumerus -32.7496 53.8555 -4.61205
lradius 25.9847
lwrist 19.8388
lhand -13.2731 19.5481
lfingers 7.12502
lthumb 12.8299 49.1338
rfemur -11.2068 -3.38408 22.1426
rtibia 57.7693
rfoot 12.9158 -12.9447
rtoes 5.67439
lfemur -18.2753 -0.0140646 -15.2643
ltibia 21.5252
lfoot -5.36591 3.75645
ltoes -0.261502
405
root -26.4073 18.0148 4.90858 123.764 -85.4273 -119.323
lowerback 1.52017 0.626816 1.72714
upperback -3.86233 0.928643 2.09576
thorax -4.84756 0.411124 1.14858
lowerneck -16.5587 -6.37184 -6.23083
upperneck 19.0085 -8.10577 3.50807
head 9.10098 -3.92663 1.16488
rclavicle 2.21148e-015 -1.63003e-014
rhumerus -20.7849 -79.7283 6.26281
rradius 21.0679
rwrist 5.62311
rhand -5.50708 -24.7485
rfingers 7.12502
rthumb 20.3061 -53.7069
lclavicle 2.21148e-015 -1.63003e-014
lhumerus -32.927 53.9436 -4.73892
lradius 26.035
lwrist 19.8743
lhand -13.0745 19.527
lfingers 7.12502
lthumb 13.0214 49.1006
rfemur -12.4075 -4.09285 21.7501
rtibia 59.3552
rfoot 12.245 -14.5875
rtoes 6.80005
lfemur -17.4561 -0.0503603 -15.7002
ltibia 21.1944
lfoot -5.74197 3.64983
ltoes -0.290723
406
root -26.5531 18.0302 4.92755 123.431 -85.6204 -119.06
lowerback 1.56979 0.555631 1.57225
upperback -3.83311 0.829781 2.10158
thorax -4.8466 0.368718 1.24651
lowerneck -16.6018 -6.31767 -6.16079
upperneck 19.1079 -8.0421 3.4617
head 9.13448 -3.89667 1.14442
rclavicle 1.20513e-015 -4.96962e-015
rhumerus -19.6795 -79.3905 5.21769
rradius 21.1609
rwrist 5.38889
rhand -5.4698 -24.7056
rfingers 7.12502
rthumb 20.342 -53.6602
lclavicle 1.20513e-015 -4.96962e-015
lhumerus -33.0661 53.9985 -4.78391
lradius 26.092
lwrist 19.8929
lhand -12.9313 19.5035
lfingers 7.12502
lthumb 13.1595 49.0682
rfemur -13.5955 -4.80273 21.4981
rtibia 60.7557
rfoot 11.3537 -16.1163
rtoes 8.23667
lfemur -16.6324 -0.100202 -16.0102
ltibia 20.8284
lfoot -6.09646 3.56945
ltoes -0.342656
407
root -26.6984 18.0466 4.94617 122.366 -85.7455 -118.058
lowerback 1.61195 0.48503 1.50435
upperback -3.80153 0.735177 2.13536
thorax -4.8379 0.325346 1.32462
lowerneck -16.6218 -6.26131 -6.12111
upperneck 19.1779 -7.97742 3.45949
head 9.15707 -3.86403 1.14491
rclavicle 1.81391e-015 2.34566e-014
rhumerus -18.6404 -78.9941 4.2479
rradius 21.2689
rwrist 5.12197
rhand -5.45887 -24.6691
rfingers 7.12502
rthumb 20.3525 -53.6227
lclavicle 1.81391e-015 2.34566e-014
lhumerus -33.154 53.9886 -4.74595
lradius 26.1516
lwrist 19.9324
lhand -12.8481 19.4783
lfingers 7.12502
lthumb 13.2396 49.0378
rfemur -14.7608 -5.49613 21.3624
rtibia 61.9426
rfoot 10.4066 -17.4721
rtoes 9.76247
lfemur -15.7987 -0.171335 -16.2165
ltibia 20.4213
lfoot -6.42078 3.5224
ltoes -0.380788
408
root -26.8431 18.0636 4.96457 120.906 -85.8221 -116.652
lowerback 1.64359 0.417864 1.49081
upperback -3.76854 0.647192 2.1877
thorax -4.82122 0.28334 1.39125
lowerneck -16.633 -6.20701 -6.09737
upperneck 19.2383 -7.91633 3.47832
head 9.17658 -3.83209 1.15497
rclavicle 2.69602e-015 -4.57205e-015
rhumerus -17.7295 -78.6214 3.41995
rradius 21.3768
rwrist 4.89944
rhand -5.48089 -24.6314
rfingers 7.12502
rthumb 20.3313 -53.5871
lclavicle 2.69602e-015 -4.57205e-015
lhumerus -33.1753 53.8725 -4.60587
lradius 26.2174
lwrist 20.0543
lhand -12.8282 19.456
lfingers 7.12502
lthumb 13.2588 49.0143
rfemur -15.9042 -6.14872 21.3015
rtibia 62.9104
rfoot 9.49549 -18.606
rtoes 11.0747
lfemur -14.9547 -0.264683 -16.3586
ltibia 19.9721
lfoot -6.72152 3.51524
ltoes -0.448543
409
root -26.9869 18.0811 4.98253 119.331 -85.8714 -115.125
lowerback 1.67471 0.355364 1.50451
upperback -3.72856 0.566546 2.24784
thorax -4.79671 0.244069 1.45028
lowerneck -16.6584 -6.15686 -6.1001
upperneck 19.2952 -7.86155 3.53561
head 9.20068 -3.80051 1.18114
rclavicle 4.1869e-015 1.98785e-016
rhumerus -16.9435 -78.2981 2.72889
rradius 21.4722
rwrist 4.72338
rhand -5.51473 -24.5961
rfingers 7.12502
rthumb 20.2988 -53.5554
lclavicle 4.1869e-015 1.98785e-016
lhumerus -33.1461 53.7217 -4.40356
lradius 26.2742
lwrist 20.2207
lhand -12.8752 19.4342
lfingers 7.12502
lthumb 13.2135 48.9954
rfemur -17.0204 -6.74047 21.2807
rtibia 63.6618
rfoot 8.63218 -19.5025
rtoes 12.075
lfemur -14.0999 -0.379913 -16.471
ltibia 19.4841
lfoot -6.9869 3.54845
ltoes -0.504646
